<svg width="58" height="58" viewBox="0 0 58 58" fill="none" xmlns="http://www.w3.org/2000/svg">
<g clip-path="url(#clip0_152_811)">
<path d="M51.1844 29.776L41.4391 25.2782V21.2315C40.3905 20.6827 39.4401 19.9632 38.6266 19.1024V25.2923L29.4859 29.5222L20.3453 25.2923V14.6045L28.8953 18.5525C29.0804 18.6384 29.282 18.6829 29.4859 18.6829C29.6899 18.6829 29.8914 18.6384 30.0766 18.5525L36.3766 15.6197C36.0191 14.7174 35.7964 13.7672 35.7156 12.7997L29.4297 15.6197L22.3141 12.3908L29.4859 9.07729L35.7297 11.8973V11.7704C35.7307 10.8176 35.8583 9.86928 36.1094 8.95039L30.0625 6.13039C29.8774 6.04449 29.6758 6 29.4719 6C29.2679 6 29.0664 6.04449 28.8812 6.13039L18.3344 10.9949C18.0903 11.1081 17.8837 11.2892 17.7391 11.5167C17.5946 11.7441 17.5181 12.0083 17.5188 12.278V25.1654L7.81563 29.6491C7.57153 29.7624 7.36495 29.9435 7.22039 30.1709C7.07582 30.3983 6.99934 30.6626 7 30.9322V44.722C6.99934 44.9917 7.07582 45.2559 7.22039 45.4833C7.36495 45.7108 7.57153 45.8918 7.81563 46.0051L18.3625 50.8696C18.5476 50.9555 18.7491 51 18.9531 51C19.1571 51 19.3586 50.9555 19.5438 50.8696L29.5 46.273L39.4562 50.8696C39.6414 50.9555 39.8429 51 40.0469 51C40.2508 51 40.4524 50.9555 40.6375 50.8696L51.1844 46.0051C51.4285 45.8918 51.635 45.7108 51.7796 45.4833C51.9242 45.2559 52.0007 44.9917 52 44.722V31.0591C52.0007 30.7895 51.9242 30.5252 51.7796 30.2978C51.635 30.0704 51.4285 29.8893 51.1844 29.776ZM18.9391 27.7316L26.125 31.045L18.9391 34.3444L11.7531 31.0591L18.9391 27.7316ZM18.9391 48.1624L9.79844 43.9324V33.2587L18.3484 37.1644C18.5297 37.2461 18.7262 37.2884 18.925 37.2884C19.1238 37.2884 19.3203 37.2461 19.5016 37.1644L28.0516 33.2164V43.9324L18.9391 48.1624ZM40.0328 27.7456L47.2187 31.0591L40.0469 34.3444L32.8609 31.0591L40.0328 27.7456ZM40.0328 48.1765L30.8781 43.9465V33.2446L39.4562 37.1644C39.6356 37.2441 39.8296 37.2852 40.0258 37.2852C40.2219 37.2852 40.4159 37.2441 40.5953 37.1644L49.1453 33.2164V43.9465L40.0328 48.1765Z" fill="white"/>
<path d="M46 19C49.866 19 53 15.866 53 12C53 8.13401 49.866 5 46 5C42.134 5 39 8.13401 39 12C39 15.866 42.134 19 46 19Z" fill="white"/>
</g>
<defs>
<clipPath id="clip0_152_811">
<rect width="58" height="58" fill="white"/>
</clipPath>
</defs>
</svg>
