<svg width="49" height="49" viewBox="0 0 49 49" fill="none" xmlns="http://www.w3.org/2000/svg">
<path d="M15.1041 28.6979H18.125V31.7188H15.1041V28.6979ZM22.6562 28.6979H25.677V31.7188H22.6562V28.6979ZM30.2083 28.6979H33.2291V31.7188H30.2083V28.6979Z" fill="white"/>
<path d="M41.5364 43.8021V8.30731H34.7395V1.51044H13.5937V8.30731H6.79683V43.8021H1.51038V46.8229H46.8229V43.8021H41.5364ZM16.6145 4.53127H31.7187V19.6354H16.6145V4.53127ZM38.5156 43.8021H25.677V37.7604H22.6562V43.8021H9.81767V11.3281H13.5937V22.6563H34.7395V11.3281H38.5156V43.8021Z" fill="white"/>
<path d="M25.677 7.55206H22.6562V10.5729H19.6354V13.5937H22.6562V16.6146H25.677V13.5937H28.6979V10.5729H25.677V7.55206Z" fill="white"/>
</svg>
