<svg width="31" height="27" viewBox="0 0 31 27" fill="none" xmlns="http://www.w3.org/2000/svg">
<path d="M15.2292 4.20156L14.4642 4.93823C14.5633 5.04106 14.6821 5.12285 14.8135 5.17872C14.945 5.23458 15.0863 5.26338 15.2292 5.26338C15.372 5.26338 15.5133 5.23458 15.6448 5.17872C15.7762 5.12285 15.8951 5.04106 15.9942 4.93823L15.2292 4.20156ZM11.5827 22.3661C9.435 20.6731 7.08758 19.0199 5.22467 16.9232C3.4 14.8662 2.125 12.4678 2.125 9.35398H0C0 13.1308 1.5725 16.0123 3.63658 18.3342C5.66242 20.6151 8.24642 22.4426 10.2666 24.0349L11.5827 22.3661ZM2.125 9.35398C2.125 6.30814 3.84625 3.75248 6.1965 2.67723C8.48017 1.63314 11.5487 1.90939 14.4642 4.93823L15.9942 3.46631C12.5375 -0.127774 8.51983 -0.721357 5.3125 0.744892C2.176 2.17998 0 5.51198 0 9.35398H2.125ZM10.2666 24.0349C10.9933 24.6072 11.7725 25.2164 12.5616 25.6782C13.3507 26.1401 14.2517 26.5141 15.2292 26.5141V24.3891C14.79 24.3891 14.2743 24.2191 13.634 23.8436C12.9923 23.4696 12.3278 22.954 11.5827 22.3661L10.2666 24.0349ZM20.1918 24.0349C22.2119 22.4411 24.7959 20.6165 26.8218 18.3342C28.8858 16.0109 30.4583 13.1308 30.4583 9.35398H28.3333C28.3333 12.4678 27.0583 14.8662 25.2337 16.9232C23.3708 19.0199 21.0233 20.6731 18.8757 22.3661L20.1918 24.0349ZM30.4583 9.35398C30.4583 5.51198 28.2838 2.17998 25.1458 0.744892C21.9385 -0.721357 17.9237 -0.127774 14.4642 3.46489L15.9942 4.93823C18.9097 1.91081 21.9782 1.63314 24.2618 2.67723C26.6121 3.75248 28.3333 6.30673 28.3333 9.35398H30.4583ZM18.8757 22.3661C18.1305 22.954 17.4661 23.4696 16.8243 23.8436C16.1826 24.2176 15.6683 24.3891 15.2292 24.3891V26.5141C16.2067 26.5141 17.1077 26.1386 17.8968 25.6782C18.6873 25.2164 19.465 24.6072 20.1918 24.0349L18.8757 22.3661Z" fill="black"/>
</svg>
