<svg width="14" height="13" viewBox="0 0 14 13" fill="none" xmlns="http://www.w3.org/2000/svg">
<path d="M2.83333 1.41738C2.83315 1.7931 2.68371 2.15336 2.4179 2.4189C2.15209 2.68445 1.79168 2.83352 1.41596 2.83333C1.04024 2.83315 0.679975 2.68371 0.414431 2.4179C0.148888 2.15209 -0.000187684 1.79168 1.77339e-07 1.41596C0.000188039 1.04024 0.149624 0.679975 0.415433 0.414431C0.681242 0.148888 1.04165 -0.000187684 1.41738 1.77339e-07C1.7931 0.000188039 2.15336 0.149624 2.4189 0.415433C2.68445 0.681243 2.83352 1.04165 2.83333 1.41738ZM2.87583 3.88238H0.0425001V12.7507H2.87583V3.88238ZM7.3525 3.88238H4.53333V12.7507H7.32417V8.09696C7.32417 5.50446 10.7029 5.26363 10.7029 8.09696V12.7507H13.5008V7.13363C13.5008 2.76321 8.5 2.92613 7.32417 5.07238L7.3525 3.88238Z" fill="#1FA33E"/>
</svg>
