<svg width="159" height="170" viewBox="0 0 159 170" fill="none" xmlns="http://www.w3.org/2000/svg">
<path d="M119.943 19.2229C129.44 30.299 134.634 43.1733 141.636 55.1452C148.736 67.1171 157.533 77.9971 158.83 89.6683C160.127 101.346 153.832 113.815 145.337 123.296C136.94 132.678 126.244 139.164 115.449 147.043C104.753 154.824 93.756 164.004 80.5644 167.901C67.471 171.791 51.9739 170.399 40.9831 162.709C30.0905 155.027 23.4881 140.956 15.6937 127.585C7.99096 114.312 -1.00867 101.64 0.0917261 89.6683C1.29037 77.6964 12.589 66.3194 21.6804 55.2433C30.7782 44.2652 37.6753 33.4898 47.4675 22.6164C57.2662 11.8344 70.0648 0.960972 83.3612 0.0586648C96.6576 -0.837104 110.452 8.23828 119.949 19.2164L119.943 19.2229Z" fill="#4AD015" fill-opacity="0.1"/>
</svg>
