<svg width="49" height="49" viewBox="0 0 49 49" fill="none" xmlns="http://www.w3.org/2000/svg">
<path d="M18.125 21.1459C19.7933 21.1459 21.1458 19.7934 21.1458 18.125C21.1458 16.4567 19.7933 15.1042 18.125 15.1042C16.4566 15.1042 15.1041 16.4567 15.1041 18.125C15.1041 19.7934 16.4566 21.1459 18.125 21.1459Z" fill="white"/>
<path d="M30.2083 21.1459C31.8767 21.1459 33.2292 19.7934 33.2292 18.125C33.2292 16.4567 31.8767 15.1042 30.2083 15.1042C28.54 15.1042 27.1875 16.4567 27.1875 18.125C27.1875 19.7934 28.54 21.1459 30.2083 21.1459Z" fill="white"/>
<path d="M24.1667 45.3125C12.5063 45.3125 3.02087 35.8271 3.02087 24.1666C3.02087 12.5062 12.5063 3.02081 24.1667 3.02081C35.8271 3.02081 45.3125 12.5062 45.3125 24.1666C45.3125 35.8271 35.8271 45.3125 24.1667 45.3125ZM24.1667 6.04165C14.1677 6.04165 6.04171 14.1677 6.04171 24.1666C6.04171 34.1656 14.1677 42.2916 24.1667 42.2916C34.1657 42.2916 42.2917 34.1656 42.2917 24.1666C42.2917 14.1677 34.1657 6.04165 24.1667 6.04165Z" fill="white"/>
<path d="M24.1667 34.7396C19.6958 34.7396 15.6781 31.9 14.1979 27.701C14.0928 27.3325 14.1314 26.9377 14.306 26.5966C14.4806 26.2554 14.7781 25.9931 15.1386 25.8627C15.499 25.7324 15.8954 25.7436 16.2479 25.8942C16.6003 26.0447 16.8825 26.3234 17.0375 26.674C17.5571 28.1498 18.522 29.428 19.799 30.3322C21.0759 31.2364 22.602 31.7221 24.1667 31.7221C25.7314 31.7221 27.2575 31.2364 28.5344 30.3322C29.8114 29.428 30.7762 28.1498 31.2958 26.674C31.5677 25.8885 32.4438 25.4656 33.2292 25.7677C34.0146 26.0396 34.4375 26.9156 34.1354 27.701C33.4087 29.7631 32.059 31.5482 30.2729 32.8092C28.4869 34.0703 26.353 34.7449 24.1667 34.7396Z" fill="white"/>
</svg>
