<svg width="166" height="168" viewBox="0 0 166 168" fill="none" xmlns="http://www.w3.org/2000/svg">
<path d="M126.331 24.9157C137.907 33.6775 149.275 40.9467 156.567 51.2077C163.962 61.5784 167.397 74.9344 165.465 87.1209C163.43 99.4107 156.029 110.421 150.455 123.887C144.881 137.353 141.232 153.067 131.587 161.19C121.937 169.312 106.395 169.738 93.7429 164.718C81.0914 159.697 71.337 149.326 59.0095 142.697C46.7857 136.177 31.9953 133.398 20.4131 125.063C8.93465 116.624 0.787612 102.409 0.0422587 87.8704C-0.599394 73.332 6.15416 58.4769 14.3012 44.1581C22.4482 29.9427 31.9888 16.4769 44.9644 8.45813C57.9336 0.439358 74.3378 -2.12587 88.5968 1.82859C102.746 5.78305 114.755 16.044 126.338 24.9157H126.331Z" fill="#D05015" fill-opacity="0.1"/>
</svg>
