<svg width="125" height="112" viewBox="0 0 125 112" fill="none" xmlns="http://www.w3.org/2000/svg">
<g filter="url(#filter0_d_152_1196)">
<path d="M98 54C98 63.1433 114.078 69.6042 109.118 76.5C101.493 87.0985 70.0527 96 56 96C32.804 96 14 77.196 14 54C14 30.804 32.804 12 56 12C79.196 12 98 30.804 98 54Z" fill="#BFD015"/>
</g>
<g clip-path="url(#clip0_152_1196)">
<path d="M71.568 65.766L70.518 64.698L69.903 65.298L70.113 66.129L71.568 65.766ZM73.5 73.5L73.137 74.955C73.3881 75.0175 73.6511 75.014 73.9005 74.9448C74.1499 74.8756 74.3771 74.7431 74.5601 74.5601C74.7431 74.3771 74.8756 74.1499 74.9448 73.9005C75.014 73.6511 75.0175 73.3881 74.955 73.137L73.5 73.5ZM61.5 70.5L60.438 69.438L58.566 71.313L61.137 71.955L61.5 70.5ZM61.575 70.425L62.634 71.487C62.8529 71.2689 62.9991 70.9886 63.0527 70.6843C63.1062 70.38 63.0645 70.0665 62.9332 69.7869C62.8019 69.5072 62.5874 69.2748 62.319 69.1217C62.0507 68.9685 61.7416 68.9019 61.434 68.931L61.575 70.425ZM54 30V37.5H57V30H54ZM60 36H51V39H60V36ZM78 54C78 49.2261 76.1036 44.6477 72.7279 41.2721C69.3523 37.8964 64.7739 36 60 36V39C61.9698 39 63.9204 39.388 65.7402 40.1418C67.5601 40.8956 69.2137 42.0005 70.6066 43.3934C71.9995 44.7863 73.1044 46.4399 73.8582 48.2597C74.612 50.0796 75 52.0302 75 54H78ZM72.618 66.837C74.3254 65.1634 75.6811 63.1654 76.6053 60.9604C77.5296 58.7554 78.0038 56.3909 78 54H75C75.0038 55.9926 74.609 57.9629 73.8388 59.8007C73.0685 61.6384 71.9414 63.3036 70.518 64.698L72.618 66.837ZM74.958 73.137L73.02 65.4L70.11 66.126L72.042 73.86L74.958 73.137ZM61.137 71.955L73.137 74.955L73.863 72.045L61.863 69.045L61.137 71.955ZM60.513 69.366L60.438 69.438L62.562 71.559L62.634 71.487L60.513 69.366ZM60 72C60.58 72 61.152 71.973 61.716 71.919L61.434 68.931C60.9574 68.9769 60.4788 68.9999 60 69V72ZM51 72H60V69H51V72ZM33 54C33 58.7739 34.8964 63.3523 38.2721 66.7279C41.6477 70.1036 46.2261 72 51 72V69C49.0302 69 47.0796 68.612 45.2597 67.8582C43.4399 67.1044 41.7863 65.9995 40.3934 64.6066C37.5804 61.7936 36 57.9782 36 54H33ZM51 36C46.2261 36 41.6477 37.8964 38.2721 41.2721C34.8964 44.6477 33 49.2261 33 54H36C36 50.0218 37.5804 46.2064 40.3934 43.3934C43.2064 40.5804 47.0218 39 51 39V36ZM55.5 54C54.3065 54 53.1619 53.5259 52.318 52.682C51.4741 51.8381 51 50.6935 51 49.5H48C48 51.4891 48.7902 53.3968 50.1967 54.8033C51.6032 56.2098 53.5109 57 55.5 57V54ZM60 49.5C60 50.6935 59.5259 51.8381 58.682 52.682C57.8381 53.5259 56.6935 54 55.5 54V57C57.4891 57 59.3968 56.2098 60.8033 54.8033C62.2098 53.3968 63 51.4891 63 49.5H60ZM55.5 45C56.6935 45 57.8381 45.4741 58.682 46.318C59.5259 47.1619 60 48.3065 60 49.5H63C63 47.5109 62.2098 45.6032 60.8033 44.1967C59.3968 42.7902 57.4891 42 55.5 42V45ZM55.5 42C53.5109 42 51.6032 42.7902 50.1967 44.1967C48.7902 45.6032 48 47.5109 48 49.5H51C51 48.3065 51.4741 47.1619 52.318 46.318C53.1619 45.4741 54.3065 45 55.5 45V42ZM55.5 66C58.692 66 61.626 64.89 63.939 63.039L62.061 60.699C60.261 62.139 57.984 63 55.5 63V66ZM47.061 63.039C49.371 64.89 52.311 66 55.5 66V63C53.1143 63.0052 50.7989 62.1931 48.939 60.699L47.061 63.039Z" fill="black"/>
</g>
<defs>
<filter id="filter0_d_152_1196" x="0" y="0" width="124.068" height="112" filterUnits="userSpaceOnUse" color-interpolation-filters="sRGB">
<feFlood flood-opacity="0" result="BackgroundImageFix"/>
<feColorMatrix in="SourceAlpha" type="matrix" values="0 0 0 0 0 0 0 0 0 0 0 0 0 0 0 0 0 0 127 0" result="hardAlpha"/>
<feOffset dy="2"/>
<feGaussianBlur stdDeviation="7"/>
<feComposite in2="hardAlpha" operator="out"/>
<feColorMatrix type="matrix" values="0 0 0 0 0 0 0 0 0 0 0 0 0 0 0 0 0 0 0.25 0"/>
<feBlend mode="normal" in2="BackgroundImageFix" result="effect1_dropShadow_152_1196"/>
<feBlend mode="normal" in="SourceGraphic" in2="effect1_dropShadow_152_1196" result="shape"/>
</filter>
<clipPath id="clip0_152_1196">
<rect width="45" height="45" fill="white" transform="translate(33 30)"/>
</clipPath>
</defs>
</svg>
