<svg width="174" height="158" viewBox="0 0 174 158" fill="none" xmlns="http://www.w3.org/2000/svg">
<path d="M139.747 5.52906C155.989 10.0039 174.112 16.0128 173.998 28.4996C173.878 40.8724 155.641 59.7164 153.52 77.2742C151.398 94.8253 165.526 111.204 163.404 119.805C161.403 128.407 143.046 129.465 128.919 128.286C114.798 127.107 104.793 123.811 90.1973 131.703C75.7219 139.594 56.535 158.8 45.8273 157.976C34.9992 157.266 32.6435 136.533 23.5821 119.926C14.5274 103.306 -1.01215 90.9399 0.0519314 79.0427C1.10932 67.2593 18.7636 55.9516 32.0612 46.8813C45.3589 37.6904 54.3065 30.7437 64.0705 22.4973C73.7208 14.251 84.3148 4.7118 96.6688 1.40924C109.143 -1.88661 123.505 1.0542 139.747 5.53576V5.52906Z" fill="#FEC643" fill-opacity="0.1"/>
</svg>
