<svg width="49" height="49" viewBox="0 0 49 49" fill="none" xmlns="http://www.w3.org/2000/svg">
<path d="M30.2083 37.7604H40.7812V40.7813H30.2083V37.7604ZM33.2292 43.8021H37.7604V46.8229H33.2292V43.8021ZM40.7812 34.7396H37.7604C37.7604 33.0781 38.3646 31.7188 39.5729 30.5104L40.3281 29.7552C41.5365 28.5469 42.2917 26.7344 42.2917 24.9219C42.2917 21.1459 39.2708 18.125 35.4948 18.125C31.7188 18.125 28.6979 21.1459 28.6979 24.9219C28.6979 26.7344 29.4531 28.3959 30.6615 29.7552L31.4167 30.5104C32.625 31.7188 33.2292 33.0781 33.2292 34.7396H30.2083C30.2083 33.9844 29.9062 33.2292 29.3021 32.625L28.5469 31.8698C26.7344 30.0573 25.6771 27.4896 25.6771 24.9219C25.6771 19.4844 30.0573 15.1042 35.4948 15.1042C40.9323 15.1042 45.3125 19.4844 45.3125 24.9219C45.3125 27.4896 44.2552 30.0573 42.4427 31.8698L41.6875 32.625C41.0833 33.2292 40.7812 33.9844 40.7812 34.7396ZM9.0625 33.2292H21.1458V36.25H9.0625V33.2292Z" fill="white"/>
<path d="M18.1249 30.2083C18.9591 30.2083 19.6353 29.5321 19.6353 28.6979C19.6353 27.8637 18.9591 27.1875 18.1249 27.1875C17.2907 27.1875 16.6145 27.8637 16.6145 28.6979C16.6145 29.5321 17.2907 30.2083 18.1249 30.2083Z" fill="white"/>
<path d="M9.0625 27.1875H13.5937V30.2084H9.0625V27.1875ZM9.0625 21.1459H19.6354V24.1667H9.0625V21.1459ZM15.1042 15.1042H25.6771V18.125H15.1042V15.1042Z" fill="white"/>
<path d="M10.5729 18.125C11.4071 18.125 12.0833 17.4488 12.0833 16.6146C12.0833 15.7804 11.4071 15.1042 10.5729 15.1042C9.73874 15.1042 9.0625 15.7804 9.0625 16.6146C9.0625 17.4488 9.73874 18.125 10.5729 18.125Z" fill="white"/>
<path d="M24.1667 9.0625H30.2084V12.0833H24.1667V9.0625Z" fill="white"/>
<path d="M19.6354 12.0833C20.4696 12.0833 21.1458 11.4071 21.1458 10.5729C21.1458 9.73874 20.4696 9.0625 19.6354 9.0625C18.8012 9.0625 18.125 9.73874 18.125 10.5729C18.125 11.4071 18.8012 12.0833 19.6354 12.0833Z" fill="white"/>
<path d="M9.0625 9.0625H15.1042V12.0833H9.0625V9.0625Z" fill="white"/>
<path d="M27.1874 42.2916H6.04158V6.04165H33.2291V12.0833H36.2499V6.04165C36.2499 4.38019 34.8905 3.02081 33.2291 3.02081H6.04158C4.38013 3.02081 3.02075 4.38019 3.02075 6.04165V42.2916C3.02075 43.9531 4.38013 45.3125 6.04158 45.3125H27.1874V42.2916Z" fill="white"/>
</svg>
