<svg width="156" height="166" viewBox="0 0 156 166" fill="none" xmlns="http://www.w3.org/2000/svg">
<path d="M130.644 8.18469C142.612 14.5821 150.713 28.3473 153.973 42.1062C157.234 55.865 155.789 69.6302 154.939 83.0315C154.095 96.3115 153.852 109.228 149.133 120.573C144.422 131.919 135.356 141.821 124.231 149.668C112.991 157.514 99.9359 163.427 85.6722 165.361C71.4084 167.174 56.0577 165.119 40.8222 159.685C25.593 154.131 10.4789 145.199 4.07267 131.919C-2.45504 118.639 -0.281268 101.017 4.55857 86.2877C9.39201 71.5584 16.8915 59.4915 22.4474 44.7622C28.0097 29.9115 31.7563 12.29 42.152 4.92854C52.5477 -2.43931 69.5927 0.337999 86.1581 1.42338C102.717 2.50877 118.554 1.666 130.644 8.18469Z" fill="#15A1D0" fill-opacity="0.1"/>
</svg>
