<svg width="160" height="153" viewBox="0 0 160 153" fill="none" xmlns="http://www.w3.org/2000/svg">
<path d="M4.1416 26.4495C8.94775 15.7543 17.2001 6.17028 27.4278 2.23478C37.7785 -1.57795 50.2216 0.270085 61.6801 1.98919C73.1385 3.70829 83.6124 5.18795 98.64 6.41587C113.545 7.521 133.139 8.38056 143.36 17.3567C153.588 26.4495 154.572 43.7818 156.911 62.3419C159.126 80.9021 162.579 100.69 156.911 117.654C151.12 134.495 136.215 148.383 118.966 151.95C101.717 155.64 82.2524 149.003 66.8493 141.746C51.4462 134.618 40.2401 126.753 34.9416 116.303C29.5201 105.854 29.8893 92.8253 24.4678 83.1185C19.1693 73.4056 8.08006 67.2598 3.15699 58.167C-1.77224 49.0741 -0.541476 37.1509 4.1416 26.4557L4.1416 26.4495Z" fill="#414EDE" fill-opacity="0.1"/>
</svg>
