<svg width="49" height="49" viewBox="0 0 49 49" fill="none" xmlns="http://www.w3.org/2000/svg">
<path d="M17.7221 22.5556C15.5856 22.5556 13.5367 21.7069 12.026 20.1961C10.5153 18.6854 9.66656 16.6365 9.66656 14.5V8.05556C9.66656 7.62827 9.8363 7.21848 10.1384 6.91634C10.4406 6.61419 10.8504 6.44445 11.2777 6.44445H12.8888C13.3161 6.44445 13.7259 6.27471 14.028 5.97257C14.3301 5.67043 14.4999 5.26063 14.4999 4.83334C14.4999 4.40605 14.3301 3.99625 14.028 3.69411C13.7259 3.39197 13.3161 3.22223 12.8888 3.22223H11.2777C9.99579 3.22223 8.76641 3.73145 7.85999 4.63788C6.95356 5.54431 6.44434 6.77368 6.44434 8.05556V14.5C6.44641 16.3201 6.89025 18.1126 7.73774 19.7234C8.58522 21.3342 9.81103 22.7152 11.3099 23.7478C12.7514 25.0162 13.9202 26.5641 14.7455 28.2978C15.5708 30.0315 16.0354 31.9147 16.111 33.8333C16.111 36.8244 17.2992 39.6929 19.4142 41.8079C21.5292 43.9229 24.3977 45.1111 27.3888 45.1111C30.3798 45.1111 33.2484 43.9229 35.3634 41.8079C37.4784 39.6929 38.6666 36.8244 38.6666 33.8333V31.9967C40.1853 31.6045 41.5089 30.672 42.3892 29.3738C43.2695 28.0756 43.6462 26.5009 43.4485 24.9448C43.2509 23.3888 42.4925 21.9583 41.3156 20.9214C40.1387 19.8845 38.624 19.3124 37.0554 19.3124C35.4869 19.3124 33.9722 19.8845 32.7953 20.9214C31.6184 21.9583 30.86 23.3888 30.6624 24.9448C30.4647 26.5009 30.8414 28.0756 31.7217 29.3738C32.602 30.672 33.9256 31.6045 35.4443 31.9967V33.8333C35.4443 35.9698 34.5956 38.0188 33.0849 39.5295C31.5742 41.0402 29.5252 41.8889 27.3888 41.8889C25.2523 41.8889 23.2034 41.0402 21.6926 39.5295C20.1819 38.0188 19.3332 35.9698 19.3332 33.8333C19.4129 31.9124 19.8825 30.0277 20.7134 28.2938C21.5443 26.56 22.7192 25.0133 24.1666 23.7478C25.6595 22.7116 26.879 21.329 27.7208 19.7184C28.5625 18.1079 29.0014 16.3173 28.9999 14.5V8.05556C28.9999 6.77368 28.4907 5.54431 27.5842 4.63788C26.6778 3.73145 25.4484 3.22223 24.1666 3.22223H22.5554C22.1282 3.22223 21.7184 3.39197 21.4162 3.69411C21.1141 3.99625 20.9443 4.40605 20.9443 4.83334C20.9443 5.26063 21.1141 5.67043 21.4162 5.97257C21.7184 6.27471 22.1282 6.44445 22.5554 6.44445H24.1666C24.5939 6.44445 25.0036 6.61419 25.3058 6.91634C25.6079 7.21848 25.7777 7.62827 25.7777 8.05556V14.5C25.7777 15.5579 25.5693 16.6054 25.1645 17.5827C24.7596 18.5601 24.1663 19.4481 23.4183 20.1961C22.6702 20.9442 21.7822 21.5375 20.8048 21.9424C19.8275 22.3472 18.78 22.5556 17.7221 22.5556ZM37.0554 29C36.2009 29 35.3813 28.6605 34.777 28.0562C34.1727 27.452 33.8332 26.6324 33.8332 25.7778C33.8332 24.9232 34.1727 24.1036 34.777 23.4993C35.3813 22.895 36.2009 22.5556 37.0554 22.5556C37.91 22.5556 38.7296 22.895 39.3339 23.4993C39.9382 24.1036 40.2777 24.9232 40.2777 25.7778C40.2777 26.6324 39.9382 27.452 39.3339 28.0562C38.7296 28.6605 37.91 29 37.0554 29Z" fill="#FFF1F1"/>
</svg>
